{
  "accessors": [
    {
      "bufferView": 1,
      "componentType": 5126,
      "count": 341,
      "max": [
        11.0,
        -0.0,
        21.082000732421875
      ],
      "min": [
        -10.0,
        -4.646999835968018,
        -11.0
      ],
      "type": "VEC3"
    },
    {
      "bufferView": 1,
      "byteOffset": 4092,
      "componentType": 5126,
      "count": 341,
      "max": [
        1.0,
        1.0,
        0.9995319247245789
      ],
      "min": [
        -0.9997076392173767,
        -1.0,
        -0.9986089468002319
      ],
      "type": "VEC3"
    },
    {
      "bufferView": 0,
      "componentType": 5125,
      "count": 1002,
      "type": "SCALAR"
    }
  ],
  "asset": {
    "extras": {
      "author": "MARCOGALLEG1446 (https://sketchfab.com/MARCOGALLEG1446)",
      "license": "CC-BY-4.0 (http://creativecommons.org/licenses/by/4.0/)",
      "source": "https://sketchfab.com/3d-models/simple-heart-ring-a7ff104a9de14262a2ae0afbbcbef576",
      "title": "Simple Heart Ring"
    },
    "generator": "Sketchfab-12.58.0",
    "version": "2.0"
  },
  "bufferViews": [
    {
      "buffer": 0,
      "byteLength": 4008,
      "name": "floatBufferViews",
      "target": 34963
    },
    {
      "buffer": 0,
      "byteLength": 8184,
      "byteOffset": 4008,
      "byteStride": 12,
      "name": "floatBufferViews",
      "target": 34962
    }
  ],
  "buffers": [
    {
      "byteLength": 12192,
      "uri": "scene.bin"
    }
  ],
  "materials": [
    {
      "doubleSided": true,
      "name": "color_15277357",
      "pbrMetallicRoughness": {
        "baseColorFactor": [
          0.2901960784313726,
          0.6078431372549019,
          0.5843137254901961,
          1.0
        ],
        "metallicFactor": 0.0
      }
    }
  ],
  "meshes": [
    {
      "name": "Object_0",
      "primitives": [
        {
          "attributes": {
            "NORMAL": 1,
            "POSITION": 0
          },
          "indices": 2,
          "material": 0,
          "mode": 4
        }
      ]
    }
  ],
  "nodes": [
    {
      "children": [
        1
      ],
      "matrix": [
        1.0,
        0.0,
        0.0,
        0.0,
        0.0,
        2.220446049250313e-16,
        -1.0,
        0.0,
        0.0,
        1.0,
        2.220446049250313e-16,
        0.0,
        0.0,
        0.0,
        0.0,
        1.0
      ],
      "name": "Sketchfab_model"
    },
    {
      "children": [
        2
      ],
      "name": "tinker.obj.cleaner.materialmerger.gles"
    },
    {
      "mesh": 0,
      "name": "Object_2"
    }
  ],
  "scene": 0,
  "scenes": [
    {
      "name": "Sketchfab_Scene",
      "nodes": [
        0
      ]
    }
  ]
}
