<svg xmlns="http://www.w3.org/2000/svg" viewBox="0 0 512 512" id="celebration"><path fill="#c4e2ff" d="m66.12 482.56 42.434-147.757 29.326 6.779-42.434 147.757-29.326-6.779z"></path><path fill="#b3dafe" d="m94.486 453.45 60.435 46.724c2.336 1.806.516 4.963-2.429 4.213L9.747 468.029c-2.946-.75-3.014-4.388-.092-4.854l75.591-12.078a12.17 12.17 0 0 1 9.24 2.354Z"></path><path fill="#c4e2ff" d="M240.96 118.27c-.84 26.46-5.56 56.7-14.44 88.04-25.18 88.86-74.27 152.86-109.65 142.94-35.37-9.91-43.63-89.99-18.45-178.85 8.89-31.36 20.75-59.62 33.94-82.63a9.814 9.814 0 0 1 11.16-4.59l90.3 25.31a9.805 9.805 0 0 1 7.14 9.78Z"></path><path fill="#b3dafe" d="M236.334 109.604a382.75 382.75 0 0 1-13.894 77.287c-25.18 88.86-74.27 152.86-109.649 142.94-12.542-3.514-21.67-15.859-27.113-34.28 4.032 29.066 14.644 49.063 31.192 53.7 35.38 9.919 84.47-54.081 109.65-142.94 8.88-31.341 13.6-61.581 14.44-88.041a9.816 9.816 0 0 0-4.626-8.666Z"></path><path fill="#fed402" d="M226.52 206.31c-25.18 88.86-74.27 152.86-109.65 142.94-35.37-9.91-43.63-89.99-18.45-178.85 22.37-3.62 37.53.35 47.75 5.43 15.15 7.54 18.73 17.17 33.96 24.76 16.07 8.02 33.12 7.77 46.39 5.72Z"></path><path fill="#fac600" d="M116.87 319.25c-19.097-5.35-30.285-31.163-32.58-67.761-2.909 52.08 8.604 91.043 32.58 97.761 35.38 9.92 84.47-54.08 109.65-142.94-3.179.491-6.579.874-10.125 1.069-26.735 72.19-68.425 120.59-99.525 111.871Z"></path><path fill="#c4e2ff" d="m445.88 482.56-42.434-147.757-29.326 6.779 42.434 147.757 29.326-6.779z"></path><path fill="#b3dafe" d="m417.514 453.45-60.435 46.724c-2.336 1.806-.516 4.963 2.429 4.213l142.745-36.358c2.946-.75 3.014-4.388.092-4.854l-75.591-12.078a12.17 12.17 0 0 0-9.24 2.354Z"></path><path fill="#c4e2ff" d="M395.13 349.25c-35.38 9.92-84.47-54.08-109.65-142.94-8.88-31.34-13.6-61.58-14.44-88.04a9.805 9.805 0 0 1 7.14-9.78l90.3-25.31a9.814 9.814 0 0 1 11.16 4.59c13.19 23.01 25.05 51.27 33.94 82.63 25.18 88.86 16.92 168.94-18.45 178.85Z"></path><path fill="#b3dafe" d="M413.58 170.4c-8.89-31.36-20.75-59.62-33.94-82.63a9.87 9.87 0 0 0-3.024-3.252 396.944 396.944 0 0 1 21.964 59.478c25.18 88.86 16.92 168.94-18.45 178.85-20.686 5.8-46.056-13.677-68.596-48.609 25.63 51.062 58.157 82.146 83.596 75.013 35.37-9.91 43.63-89.99 18.45-178.85Z"></path><path fill="#fed402" d="M395.13 349.25c-35.38 9.92-84.47-54.08-109.65-142.94 13.27 2.05 30.32 2.3 46.39-5.72 15.23-7.59 18.81-17.22 33.96-24.76 10.22-5.08 25.38-9.05 47.75-5.43 25.18 88.86 16.92 168.94-18.45 178.85Z"></path><path fill="#fac600" d="M413.58 170.4c-2.902-.47-5.677-.806-8.342-1.035 17.32 78.74 7.557 145.583-24.556 154.581-20.674 5.797-46.027-13.654-68.557-48.547 25.539 50.367 57.76 80.93 83.005 73.851 35.37-9.91 43.63-89.99 18.45-178.85Z"></path><path fill="#282828" d="M289.847 58.236a7.497 7.497 0 0 0 10.481-1.624l21.723-29.687a7.5 7.5 0 0 0-12.106-8.858l-21.722 29.688a7.5 7.5 0 0 0 1.624 10.481Zm-79.256-3.095a7.5 7.5 0 1 0 12.105-8.858l-20.645-28.216a7.5 7.5 0 0 0-12.106 8.858Zm25.25 46.125-90.296-25.313a17.308 17.308 0 0 0-19.69 8.085c-13.92 24.284-25.902 53.44-34.652 84.313-19.317 68.159-19.838 133.551-1.326 166.594a55.15 55.15 0 0 0 7.738 10.757L68.776 446.128l-60.308 9.636a9.84 9.84 0 0 0-8.46 9.24 10.18 10.18 0 0 0 7.885 10.289l54.928 13.99a7.555 7.555 0 0 0 1.07.435 7.478 7.478 0 0 0 1.863.312l84.886 21.62a11.062 11.062 0 0 0 2.732.347 10.042 10.042 0 0 0 9.128-5.614 9.827 9.827 0 0 0-2.994-12.147l-47.185-36.48 29.884-104.09c12.852-5.7 26.215-17.274 39.262-34.282 21.274-27.734 39.838-67.165 52.27-111.033l.057-.206.003-.01c8.707-30.784 13.777-61.774 14.66-89.633a17.28 17.28 0 0 0-12.616-17.236Zm-104.818 389.91-96.03-24.46 40.819-6.52c.042-.008.084-.014.127-.021l10.488-1.676a4.66 4.66 0 0 1 3.47.88ZM99.55 447.882l-.478-.37a19.568 19.568 0 0 0-13.954-3.938l25.448-88.62a34.501 34.501 0 0 0 13.748 2.808c.37 0 .744-.015 1.117-.026Zm121.07-248.38c-14.155 1.49-26.638-.388-37.144-5.624a53.782 53.782 0 0 1-11.809-8.08 7.5 7.5 0 1 0-9.875 11.29 67.885 67.885 0 0 0 14.991 10.214 76.815 76.815 0 0 0 34.672 7.708c1.544 0 3.109-.05 4.686-.125-11.785 37.774-28.139 71.337-46.575 95.369-18.447 24.047-36.919 35.624-50.671 31.772-6.185-1.733-11.544-6.582-15.931-14.412-16-28.561-15.367-88.58 1.374-150.461 14.862-1.728 27.798.07 38.493 5.389a7.5 7.5 0 0 0 6.682-13.43c-11.767-5.854-25.411-8.33-40.674-7.415 8.038-25.698 18.328-49.783 30.03-70.199a2.335 2.335 0 0 1 2.018-1.185 2.26 2.26 0 0 1 .61.084l90.297 25.312h.001a2.312 2.312 0 0 1 1.67 2.317c-.801 25.294-5.236 53.364-12.845 81.475ZM256-.005a7.5 7.5 0 0 0-7.5 7.5v41a7.5 7.5 0 1 0 15 0v-41a7.5 7.5 0 0 0-7.5-7.5Zm255.99 465.009a9.84 9.84 0 0 0-8.463-9.241l-60.306-9.636-28.838-100.422c7.295-7.799 12.885-19.24 16.507-33.975a7.5 7.5 0 1 0-14.567-3.58c-2.698 10.977-9.301 29.974-23.22 33.875-13.754 3.854-32.224-7.723-50.671-31.772-18.436-24.032-34.79-57.595-46.575-95.37 1.577.076 3.143.126 4.686.126a76.815 76.815 0 0 0 34.672-7.708c8.565-4.27 13.973-9.225 18.743-13.596 4.418-4.048 8.59-7.871 15.209-11.164 10.692-5.319 23.623-7.12 38.485-5.39 9.856 36.403 14.35 72.679 12.654 102.639a7.5 7.5 0 0 0 14.976.848c1.863-32.873-3.283-72.752-14.488-112.288-8.75-30.873-20.732-60.029-34.651-84.314a17.3 17.3 0 0 0-19.69-8.084l-90.297 25.313A17.279 17.279 0 0 0 263.54 118.5c.883 27.86 5.953 58.85 14.66 89.633l.003.011.057.206c12.432 43.868 30.996 83.3 52.27 111.033 13.048 17.01 26.41 28.585 39.263 34.283l29.883 104.089-47.187 36.481a9.827 9.827 0 0 0-2.992 12.146 10.042 10.042 0 0 0 9.128 5.614 11.076 11.076 0 0 0 2.733-.347l84.885-21.62a6.945 6.945 0 0 0 2.933-.747l54.928-13.99a10.18 10.18 0 0 0 7.885-10.288ZM278.53 118.025a2.311 2.311 0 0 1 1.672-2.316L370.5 90.396a2.315 2.315 0 0 1 2.628 1.101c11.703 20.417 21.992 44.503 30.03 70.2-15.262-.913-28.908 1.563-40.674 7.415-8.512 4.236-13.904 9.176-18.66 13.534-4.435 4.064-8.624 7.903-15.302 11.232-10.505 5.237-22.987 7.116-37.145 5.624-7.609-28.112-12.043-56.182-12.846-81.477Zm108.035 239.711c.373.012.747.026 1.118.026a34.781 34.781 0 0 0 13.749-2.8l25.446 88.612a19.56 19.56 0 0 0-13.954 3.939l-.478.37Zm-5.593 133.44 41.126-31.796a4.667 4.667 0 0 1 3.47-.881l10.49 1.676.124.02 40.82 6.522Z"></path></svg>